<svg width="88" height="21" viewBox="0 0 88 21" fill="none" xmlns="http://www.w3.org/2000/svg">
<g opacity="0.3" clip-path="url(#clip0_1561_42216)">
<path d="M20.9591 19.6044H16.1168L14.6354 16.0012H6.56525L5.21563 19.6044H0.453125L7.72911 1.40615H12.9417L20.9591 19.6044ZM10.4017 5.75469L7.75585 12.8255H13.3125L10.4017 5.75469ZM38.5488 1.40615H42.4647V19.6044H37.9661V8.23724L33.0977 13.9469H32.41L27.5418 8.23724V19.6042H23.0432V1.40615H26.9591L32.7535 8.1569L38.5488 1.40615ZM53.8631 1.40615C60.4512 1.40615 63.8375 5.5415 63.8375 10.5313C63.8375 15.7611 60.557 19.6044 53.3601 19.6044H45.8984V1.40615H53.8631ZM50.3967 16.269H53.3332C57.8577 16.269 59.2074 13.1731 59.2074 10.5043C59.2074 7.38206 57.5401 4.74113 53.2802 4.74113H50.3965V16.269H50.3967ZM72.7872 5.72112L67.115 0H87.7645V20.8248L82.0923 15.1043V5.72112H72.7872ZM72.7806 6.86752L66.9407 12.7565V21H75.1141L80.9536 15.111H72.7806V6.86752Z" fill="#202430"/>
</g>
<defs>
<clipPath id="clip0_1561_42216">
<rect width="87.349" height="21" fill="white" transform="translate(0.43457)"/>
</clipPath>
</defs>
</svg>
