<svg width="36" height="36" viewBox="0 0 36 36" fill="none" xmlns="http://www.w3.org/2000/svg">
<rect x="0.5" y="0.5" width="35" height="35" rx="17.5" fill="white"/>
<rect x="0.5" y="0.5" width="35" height="35" rx="17.5" stroke="#D6DCEA"/>
<path d="M21.6739 21.4439H16.1161C15.9011 21.4439 15.6928 21.3683 15.5277 21.2305C15.3626 21.0927 15.2511 20.9013 15.2127 20.6897L13.7485 12.6374C13.7293 12.5316 13.6735 12.4359 13.591 12.367C13.5084 12.2981 13.4043 12.2603 13.2968 12.2603H12.2607" stroke="#25324B" stroke-width="1.42856" stroke-linecap="round" stroke-linejoin="round"/>
<path d="M16.1636 23.7398C16.7976 23.7398 17.3115 23.2258 17.3115 22.5919C17.3115 21.9579 16.7976 21.4439 16.1636 21.4439C15.5296 21.4439 15.0156 21.9579 15.0156 22.5919C15.0156 23.2258 15.5296 23.7398 16.1636 23.7398Z" stroke="#25324B" stroke-width="1.42856" stroke-linecap="round" stroke-linejoin="round"/>
<path d="M21.6733 23.7398C22.3073 23.7398 22.8213 23.2258 22.8213 22.5919C22.8213 21.9579 22.3073 21.4439 21.6733 21.4439C21.0393 21.4439 20.5254 21.9579 20.5254 22.5919C20.5254 23.2258 21.0393 23.7398 21.6733 23.7398Z" stroke="#25324B" stroke-width="1.42856" stroke-linecap="round" stroke-linejoin="round"/>
<path d="M14.9318 19.148H22.138C22.3531 19.148 22.5614 19.0725 22.7264 18.9347C22.8915 18.7968 23.003 18.6054 23.0415 18.3938L23.7394 14.5562H14.0967" stroke="#25324B" stroke-width="1.42856" stroke-linecap="round" stroke-linejoin="round"/>
<rect x="18" y="5" width="12" height="12" rx="6" fill="#1A7449"/>
<path d="M23.9729 13.07C23.6907 13.07 23.4496 13.0044 23.2496 12.8733C23.0496 12.7422 22.8874 12.5611 22.7629 12.33C22.6385 12.0967 22.5474 11.8278 22.4896 11.5233C22.4318 11.2189 22.4029 10.8956 22.4029 10.5533C22.4029 10.2111 22.4318 9.88778 22.4896 9.58333C22.5474 9.27667 22.6385 9.00667 22.7629 8.77333C22.8874 8.53778 23.0496 8.35333 23.2496 8.22C23.4496 8.08667 23.6907 8.02 23.9729 8.02C24.2574 8.02 24.4996 8.08667 24.6996 8.22C24.8996 8.35333 25.0607 8.53778 25.1829 8.77333C25.3074 9.00667 25.3985 9.27667 25.4563 9.58333C25.514 9.88778 25.5429 10.2111 25.5429 10.5533C25.5429 10.8956 25.514 11.2189 25.4563 11.5233C25.3985 11.8278 25.3074 12.0967 25.1829 12.33C25.0607 12.5611 24.8996 12.7422 24.6996 12.8733C24.4996 13.0044 24.2574 13.07 23.9729 13.07ZM23.9729 12.47C24.1618 12.47 24.3174 12.4 24.4396 12.26C24.564 12.12 24.6574 11.9078 24.7196 11.6233C24.7818 11.3389 24.8129 10.9822 24.8129 10.5533C24.8129 10.1222 24.7818 9.76556 24.7196 9.48333C24.6574 9.19889 24.564 8.98556 24.4396 8.84333C24.3174 8.70111 24.1618 8.63 23.9729 8.63C23.7863 8.63 23.6307 8.70111 23.5063 8.84333C23.3818 8.98556 23.2885 9.19889 23.2263 9.48333C23.164 9.76556 23.1329 10.1222 23.1329 10.5533C23.1329 10.9844 23.164 11.3422 23.2263 11.6267C23.2885 11.9089 23.3818 12.12 23.5063 12.26C23.6307 12.4 23.7863 12.47 23.9729 12.47Z" fill="white"/>
</svg>
