<svg width="88" height="88" viewBox="0 0 88 88" fill="none" xmlns="http://www.w3.org/2000/svg">
<path d="M13.1943 75.3688H26.8858L71.3831 30.8715C73.1987 29.0559 74.2187 26.5934 74.2187 24.0257C74.2187 21.4581 73.1987 18.9956 71.3831 17.18C69.5675 15.3644 67.105 14.3444 64.5374 14.3444C61.9697 14.3444 59.5072 15.3644 57.6916 17.18L13.1943 61.6773V75.3688Z" stroke="#1A7449" stroke-width="3" stroke-linecap="round" stroke-linejoin="round"/>
<path d="M52.5576 22.3133L66.2491 36.0048" stroke="#1A7449" stroke-width="3" stroke-linecap="round" stroke-linejoin="round"/>
<path d="M44.0002 30.8706L26.8858 13.7563L13.1943 27.4477L30.3087 44.5621" stroke="#1A7449" stroke-width="3" stroke-linecap="round" stroke-linejoin="round"/>
<path d="M26.8863 30.8712L21.752 36.0056" stroke="#1A7449" stroke-width="3" stroke-linecap="round" stroke-linejoin="round"/>
<path d="M57.6915 44.5622L74.8058 61.6765L61.1143 75.368L44 58.2536" stroke="#1A7449" stroke-width="3" stroke-linecap="round" stroke-linejoin="round"/>
<path d="M57.6919 61.6772L52.5576 66.8115" stroke="#1A7449" stroke-width="3" stroke-linecap="round" stroke-linejoin="round"/>
</svg>
