<svg width="88" height="88" viewBox="0 0 88 88" fill="none" xmlns="http://www.w3.org/2000/svg">
<g clip-path="url(#clip0_3757_43477)">
<path d="M66 41.8122C69.2024 41.8098 72.3611 42.5542 75.2254 43.9863C78.0897 45.4185 80.5805 47.4988 82.5 50.0622" stroke="#1A7449" stroke-width="3" stroke-linecap="round" stroke-linejoin="round"/>
<path d="M5.5 50.0622C7.41949 47.4988 9.91031 45.4185 12.7746 43.9863C15.6389 42.5542 18.7976 41.8098 22 41.8122" stroke="#1A7449" stroke-width="3" stroke-linecap="round" stroke-linejoin="round"/>
<path d="M44 63.8122C51.5939 63.8122 57.75 57.6561 57.75 50.0622C57.75 42.4682 51.5939 36.3122 44 36.3122C36.4061 36.3122 30.25 42.4682 30.25 50.0622C30.25 57.6561 36.4061 63.8122 44 63.8122Z" stroke="#1A7449" stroke-width="3" stroke-linecap="round" stroke-linejoin="round"/>
<path d="M24.75 74.8122C26.7241 71.4621 29.5383 68.6853 32.9144 66.7561C36.2905 64.8269 40.1116 63.8122 44 63.8122C47.8884 63.8122 51.7095 64.8269 55.0856 66.7561C58.4617 68.6853 61.2759 71.4621 63.25 74.8122" stroke="#1A7449" stroke-width="3" stroke-linecap="round" stroke-linejoin="round"/>
<path d="M55.3438 28.0622C55.858 26.0704 56.9205 24.2627 58.4106 22.8444C59.9007 21.4261 61.7586 20.4541 63.7734 20.0387C65.7881 19.6234 67.879 19.7813 69.8085 20.4946C71.738 21.2078 73.4289 22.4479 74.689 24.0739C75.9492 25.6999 76.7281 27.6466 76.9374 29.6931C77.1467 31.7396 76.7779 33.8037 75.873 35.6511C74.968 37.4985 73.5632 39.0551 71.818 40.1442C70.0728 41.2333 68.0571 41.8111 66 41.8122" stroke="#1A7449" stroke-width="3" stroke-linecap="round" stroke-linejoin="round"/>
<path d="M22.0003 41.8122C19.9432 41.8111 17.9276 41.2333 16.1824 40.1442C14.4372 39.0551 13.0323 37.4985 12.1274 35.6511C11.2224 33.8037 10.8537 31.7396 11.0629 29.6931C11.2722 27.6466 12.0512 25.6999 13.3113 24.0739C14.5714 22.4479 16.2623 21.2078 18.1918 20.4946C20.1213 19.7813 22.2122 19.6234 24.227 20.0387C26.2417 20.4541 28.0996 21.4261 29.5897 22.8444C31.0798 24.2627 32.1423 26.0704 32.6566 28.0622" stroke="#1A7449" stroke-width="3" stroke-linecap="round" stroke-linejoin="round"/>
</g>
<defs>
<clipPath id="clip0_3757_43477">
<rect width="88" height="88" fill="white"/>
</clipPath>
</defs>
</svg>
