<svg width="63" height="24" viewBox="0 0 63 24" fill="none" xmlns="http://www.w3.org/2000/svg">
<g opacity="0.3" clip-path="url(#clip0_1561_42207)">
<path d="M0.728516 0.334839H5.1837V4.81226H0.728516V0.334839Z" fill="#202430"/>
<path d="M5.07309 23.6635V7.52242H0.839844V23.6476H5.07315L5.07309 23.6635ZM33.1045 23.8229V19.8712C32.4861 19.8712 31.9629 19.8394 31.5824 19.7756C31.1384 19.7119 30.8055 19.5525 30.5835 19.3295C30.3615 19.1064 30.2188 18.7877 30.1396 18.3575C30.0762 17.9591 30.0445 17.4334 30.0445 16.796V11.1713H33.1045V7.52242H30.0444V1.24445H25.8111V16.8438C25.8111 18.1663 25.9221 19.2817 26.1441 20.174C26.3661 21.0504 26.7466 21.7674 27.2698 22.3091C27.793 22.8509 28.4906 23.2333 29.3309 23.4723C30.1871 23.7113 31.2652 23.8229 32.5495 23.8229H33.1045ZM57.3306 23.6635V0.00158691H53.0974V23.6635H57.3306ZM21.7366 9.11582C20.5634 7.8411 18.9144 7.20374 16.8216 7.20374C15.8069 7.20374 14.8714 7.4109 14.047 7.82515C13.2067 8.23945 12.5091 8.81304 11.9383 9.54597L11.7163 9.84875V7.52242H7.54653V23.6476H11.748V15.0592V15.3619C11.7956 13.8482 12.1603 12.7328 12.8579 12.0158C13.6031 11.251 14.5067 10.8686 15.5374 10.8686C16.7582 10.8686 17.6936 11.251 18.312 11.9839C18.9144 12.7169 19.2315 13.7526 19.2315 15.0751V23.6476H23.4965V14.5015C23.5123 12.207 22.9099 10.3905 21.7366 9.11582ZM50.9093 15.569C50.9093 14.4059 50.7033 13.3224 50.3069 12.3026C49.8947 11.2987 49.3239 10.4064 48.6104 9.6416C47.8811 8.87681 47.0091 8.28727 45.9944 7.85706C44.9796 7.4268 43.854 7.21964 42.6332 7.21964C41.4757 7.21964 40.3817 7.44275 39.367 7.87296C38.3523 8.31912 37.4645 8.90867 36.7193 9.65756C35.9741 10.4064 35.3716 11.2988 34.9435 12.3186C34.4996 13.3383 34.2935 14.4378 34.2935 15.601C34.2935 16.7641 34.4997 17.8636 34.9118 18.8833C35.324 19.9031 35.9107 20.7954 36.64 21.5443C37.3694 22.2932 38.2731 22.8987 39.3195 23.3289C40.3659 23.775 41.5233 23.9982 42.76 23.9982C46.3432 23.9982 48.5628 22.3569 49.8947 20.8273L46.8505 18.5009C46.2163 19.2657 44.6943 20.3015 42.7917 20.3015C41.6026 20.3015 40.6196 20.0306 39.8744 19.4729C39.1292 18.9311 38.6219 18.1663 38.3523 17.2262L38.3048 17.0828H50.9093V15.569ZM38.3365 14.0872C38.3365 12.9081 39.6841 10.8526 42.5856 10.8367C45.487 10.8367 46.8505 12.8922 46.8505 14.0713L38.3365 14.0872ZM62.1506 21.624C62.0713 21.4328 61.9603 21.2734 61.8176 21.13C61.6749 20.9866 61.5164 20.8751 61.3261 20.7954C61.1359 20.7157 60.9297 20.668 60.7236 20.668C60.5017 20.668 60.3114 20.7157 60.1212 20.7954C59.9309 20.8751 59.7723 20.9866 59.6297 21.13C59.487 21.2734 59.376 21.4328 59.2967 21.624C59.2174 21.8152 59.1699 22.0223 59.1699 22.2295C59.1699 22.4525 59.2174 22.6437 59.2967 22.835C59.376 23.0261 59.487 23.1855 59.6297 23.3289C59.7723 23.4723 59.9309 23.5839 60.1212 23.6635C60.3114 23.7432 60.5176 23.7909 60.7236 23.7909C60.9456 23.7909 61.1359 23.7432 61.3261 23.6635C61.5164 23.5839 61.6749 23.4723 61.8176 23.3289C61.9603 23.1855 62.0713 23.0262 62.1506 22.835C62.23 22.6438 62.2774 22.4366 62.2774 22.2294C62.2774 22.0222 62.2298 21.8152 62.1506 21.624H62.1506ZM61.8969 22.7393C61.8335 22.8987 61.7384 23.0421 61.6273 23.1536C61.5164 23.2652 61.3737 23.3607 61.2151 23.4245C61.0566 23.4882 60.898 23.5201 60.7078 23.5201C60.5334 23.5201 60.3589 23.4882 60.2005 23.4245C60.042 23.3608 59.8992 23.2652 59.7882 23.1536C59.6772 23.0421 59.5821 22.8987 59.5186 22.7393C59.4552 22.58 59.4235 22.4207 59.4235 22.2295C59.4235 22.0542 59.4552 21.8789 59.5187 21.7196C59.5821 21.5602 59.6772 21.4168 59.7882 21.3053C59.8992 21.1938 60.0419 21.0981 60.2005 21.0343C60.3589 20.9706 60.5175 20.9388 60.7078 20.9388C60.8822 20.9388 61.0566 20.9707 61.2151 21.0344C61.3737 21.0981 61.5164 21.1938 61.6273 21.3053C61.7384 21.4168 61.8335 21.5602 61.8969 21.7196C61.9603 21.879 61.992 22.0383 61.992 22.2295C61.992 22.4207 61.9603 22.58 61.8969 22.7393ZM61.009 22.3728C61.1358 22.3569 61.231 22.3091 61.3102 22.2295C61.3895 22.1498 61.4371 22.0383 61.4371 21.8789C61.4371 21.7036 61.3895 21.5761 61.2785 21.4806C61.1834 21.3849 61.009 21.3371 60.8029 21.3371H60.1053V23.1377H60.4383V22.4047H60.676L61.12 23.1377H61.4688L61.009 22.3728ZM60.8346 22.102H60.4382V21.5921H60.8345C60.8821 21.5921 60.9297 21.608 60.9773 21.624C61.0248 21.6399 61.0565 21.6718 61.0724 21.7036C61.1041 21.7355 61.1041 21.7833 61.1041 21.847C61.1041 21.9107 61.0882 21.9586 61.0724 21.9904C61.0407 22.0223 61.009 22.0542 60.9773 22.0701C60.9297 22.086 60.8821 22.102 60.8345 22.102H60.8346Z" fill="#202430"/>
</g>
<defs>
<clipPath id="clip0_1561_42207">
<rect width="61.5485" height="24" fill="white" transform="translate(0.727539)"/>
</clipPath>
</defs>
</svg>
