<svg width="25" height="24" viewBox="0 0 25 24" fill="none" xmlns="http://www.w3.org/2000/svg">
<path d="M12.5 12.9033C14.1569 12.9033 15.5 11.5602 15.5 9.90332C15.5 8.24647 14.1569 6.90332 12.5 6.90332C10.8431 6.90332 9.5 8.24647 9.5 9.90332C9.5 11.5602 10.8431 12.9033 12.5 12.9033Z" stroke="#25324B" stroke-width="2" stroke-linecap="round" stroke-linejoin="round"/>
<path d="M20 9.90332C20 16.6533 12.5 21.9033 12.5 21.9033C12.5 21.9033 5 16.6533 5 9.90332C5 7.9142 5.79018 6.00654 7.1967 4.60002C8.60322 3.1935 10.5109 2.40332 12.5 2.40332C14.4891 2.40332 16.3968 3.1935 17.8033 4.60002C19.2098 6.00654 20 7.9142 20 9.90332Z" stroke="#25324B" stroke-width="2" stroke-linecap="round" stroke-linejoin="round"/>
</svg>
