<svg width="88" height="88" viewBox="0 0 88 88" fill="none" xmlns="http://www.w3.org/2000/svg">
<path d="M40.3334 21.5673V70.5467C40.3323 72.0664 39.7949 73.537 38.8159 74.6993C37.8369 75.8617 36.4791 76.6412 34.9817 76.9007C33.4843 77.1601 31.9433 76.8828 30.6304 76.1175C29.3174 75.3522 28.3166 74.1481 27.8044 72.7173L19.932 50.1673M66 47.6667C68.9174 47.6667 71.7153 46.5077 73.7782 44.4448C75.8411 42.3819 77 39.584 77 36.6667C77 33.7493 75.8411 30.9514 73.7782 28.8885C71.7153 26.8256 68.9174 25.6667 66 25.6667V47.6667ZM19.932 50.171C16.8198 48.8477 14.2604 46.4899 12.6868 43.4964C11.1133 40.503 10.6222 37.0578 11.2968 33.744C11.9714 30.4301 13.7702 27.4511 16.3888 25.311C19.0073 23.1709 22.2849 22.0013 25.6667 22H32.384C47.4174 22 60.3424 17.4753 66 11V62.3333C60.3424 55.858 47.421 51.3333 32.384 51.3333H25.6667C23.6964 51.3362 21.7458 50.9408 19.932 50.171Z" stroke="white" stroke-width="3" stroke-linecap="round" stroke-linejoin="round"/>
</svg>
