<svg width="82" height="24" viewBox="0 0 82 24" fill="none" xmlns="http://www.w3.org/2000/svg">
<g opacity="0.3">
<path d="M8.47656 23.7056C8.04485 23.7056 7.82854 23.5196 7.82854 23.1457V23.0284C7.82854 22.7936 8.026 22.4396 8.42002 21.9683C8.83289 21.478 9.03932 20.9868 9.03932 20.4965V5.01065H7.54671C7.11499 5.01065 6.72097 5.19756 6.36375 5.57048C6.02959 5.93756 5.75406 6.35457 5.54698 6.80664C5.3585 7.23825 5.12514 7.64097 4.84331 8.0139C4.56148 8.38682 4.27965 8.57373 3.99782 8.57373H3.51943C2.99347 8.57373 2.75832 8.2884 2.81486 7.71953L3.37852 3.71489C3.43417 3.1072 3.75369 2.8029 4.3362 2.8029H18.8136C19.3763 2.8029 19.6959 3.1072 19.7704 3.71489L20.3627 7.74843C20.3995 8.00397 20.3529 8.20984 20.2209 8.36696C20.0899 8.50421 19.9023 8.57283 19.6582 8.57283H19.1789C18.8979 8.57283 18.6161 8.38682 18.3343 8.013C18.0525 7.63917 17.8083 7.23825 17.6019 6.80664C17.3955 6.35516 17.1136 5.94341 16.7573 5.56958C16.4001 5.19756 16.0061 5.01065 15.5743 5.01065H14.1095V20.4965C14.1095 20.9868 14.307 21.478 14.701 21.9683C15.1139 22.4396 15.3203 22.7927 15.3203 23.0284V23.1457C15.3203 23.5196 15.0959 23.7056 14.6445 23.7056H8.47656ZM32.3225 20.4965C32.379 20.9678 32.4823 21.3507 32.6321 21.645C32.8018 21.9195 32.9606 22.0965 33.1114 22.1751C33.2802 22.2536 33.4301 22.3511 33.562 22.4694C33.693 22.5868 33.7595 22.734 33.7595 22.911C33.7595 23.5584 32.6986 23.8826 30.5768 23.8826C29.7124 23.8826 29.0644 23.7742 28.6327 23.5575C28.2198 23.3426 27.9568 22.9796 27.8447 22.4694C27.1302 23.4898 25.9383 23.9999 24.267 23.9999C22.6901 23.9999 21.4039 23.6171 20.4076 22.8514C19.432 22.0866 18.9446 20.9777 18.9446 19.5249C18.9446 18.1117 19.432 17.0128 20.4076 16.2272C21.385 15.4236 22.5868 15.0209 24.0139 15.0209C25.1215 15.0209 26.0693 15.2656 26.8591 15.7568V15.6683C26.6707 13.7251 26.4553 12.4104 26.2102 11.7224C25.9858 11.0361 25.5344 10.693 24.8585 10.693C24.4268 10.693 24.0795 10.8989 23.8165 11.3106C23.551 11.7287 23.3515 12.1856 23.225 12.6651C23.1085 13.1637 22.877 13.6277 22.5491 14.0195C22.2108 14.4322 21.7602 14.638 21.1974 14.638C20.6149 14.638 20.1365 14.461 19.7614 14.108C19.4042 13.7549 19.2255 13.2935 19.2255 12.7247C19.2255 11.586 19.7704 10.7318 20.8591 10.1629C21.9478 9.57422 23.2815 9.27985 24.8585 9.27985C26.7362 9.27985 28.2853 9.81892 29.506 10.8989C30.7446 11.9589 31.4779 13.401 31.7032 15.2268L32.3225 20.4965ZM25.8162 22.4983C26.2479 22.4983 26.5953 22.2825 26.8583 21.8509C27.1401 21.4193 27.2801 20.9281 27.2801 20.3791L27.1679 19.0246C26.9803 17.3957 26.3987 16.5812 25.4222 16.5812C24.9905 16.5812 24.6431 16.7672 24.3801 17.141C24.1172 17.4932 23.9852 17.9745 23.9852 18.5831C23.9852 19.682 24.145 20.6147 24.4645 21.3795C24.802 22.1254 25.2534 22.4992 25.8162 22.4992V22.4983ZM34.9927 23.7056C34.5601 23.7056 34.3447 23.5196 34.3447 23.1457V23.0284C34.3447 22.7936 34.5224 22.4396 34.8796 21.9683C35.2548 21.478 35.4424 20.9868 35.4424 20.4965V7.04231C35.4424 6.53214 35.2548 6.04093 34.8796 5.57048C34.5224 5.07927 34.3447 4.73615 34.3447 4.5393V4.42191C34.3447 4.2052 34.5511 3.97946 34.964 3.74469L39.2165 1.56584C39.6114 1.38977 39.9211 1.37983 40.1464 1.53695C40.3905 1.6742 40.5126 1.89001 40.5126 2.18437V20.4965C40.5126 20.9868 40.719 21.478 41.1319 21.9683C41.5448 22.4396 41.7512 22.7927 41.7512 23.0284V23.1457C41.7512 23.5196 41.5268 23.7056 41.0762 23.7056H34.9927ZM57.9393 21.2324C58.0335 21.3696 58.3153 21.6252 58.7848 21.9981C59.273 22.371 59.5172 22.7141 59.5172 23.0284V23.1457C59.5172 23.5196 59.3018 23.7056 58.8691 23.7056H52.9543C52.5226 23.7056 52.3063 23.5096 52.3063 23.1168V23.0284C52.3063 22.7936 52.4472 22.5083 52.729 22.1742C53.0109 21.822 53.0674 21.5069 52.8978 21.2324L50.4197 17.3758L49.0105 18.7303V20.4965C49.0105 20.9868 49.2169 21.478 49.6307 21.9683C50.0624 22.4396 50.2787 22.7927 50.2787 23.0284V23.1457C50.2787 23.5196 50.0535 23.7056 49.6029 23.7056H43.5185C43.0679 23.7056 42.8426 23.5196 42.8426 23.1457V23.0284C42.8426 22.7936 43.0311 22.4396 43.4063 21.9683C43.7814 21.478 43.9699 20.9868 43.9699 20.4965V7.04231C43.9699 6.53214 43.7437 6.04093 43.2932 5.57048C42.8426 5.07927 42.6173 4.73615 42.6173 4.5393V4.42191C42.6173 4.2052 42.8237 3.97946 43.2366 3.74469L47.745 1.56584C48.139 1.40873 48.4487 1.3997 48.6739 1.53695C48.8992 1.6742 49.0123 1.89001 49.0123 2.18437V16.1686L52.8143 12.7535C53.0396 12.5964 53.124 12.4005 53.0683 12.1648C53.034 11.9361 52.9363 11.7217 52.7865 11.5463C52.6398 11.328 52.4896 11.1122 52.3359 10.8989C52.1851 10.6641 52.1106 10.4564 52.1106 10.2803V10.1629C52.1106 9.77016 52.326 9.57422 52.7578 9.57422H57.2087C57.6395 9.57422 57.8558 9.76023 57.8558 10.1341V10.2514C57.8558 10.4862 57.7248 10.7318 57.4618 10.9874C57.1988 11.2221 56.8236 11.5075 56.3354 11.8407C55.9344 12.1009 55.5574 12.3967 55.209 12.7247L53.4058 14.461L57.9393 21.2324ZM63.6189 7.83692C62.6613 7.83692 61.8822 7.56242 61.2808 7.01251C60.6795 6.44365 60.3797 5.73663 60.3797 4.89326C60.3797 4.04899 60.6804 3.3519 61.2808 2.8029C61.8822 2.23404 62.6613 1.9487 63.6189 1.9487C64.5578 1.9487 65.3279 2.23313 65.9283 2.8029C66.5297 3.3519 66.8294 4.04899 66.8294 4.89326C66.8294 5.73663 66.5297 6.44365 65.9283 7.01251C65.327 7.56242 64.5578 7.83692 63.6189 7.83692ZM60.605 23.7056C60.1544 23.7056 59.9291 23.5196 59.9291 23.1457V23.0284C59.9291 22.7936 60.1176 22.4297 60.4928 21.9394C60.868 21.4491 61.0555 20.9579 61.0555 20.4676V14.8737C61.0555 14.3635 60.868 13.8723 60.4928 13.4019C60.1167 12.9107 59.9291 12.5766 59.9291 12.3996V12.2822C59.9291 12.0474 60.1445 11.8217 60.5772 11.605L64.8297 9.42703C65.2246 9.25005 65.5343 9.23019 65.7596 9.36834C65.9849 9.50559 66.0979 9.73133 66.0979 10.0456V20.4676C66.0979 20.9579 66.3044 21.4482 66.7173 21.9394C67.149 22.4297 67.3653 22.7927 67.3653 23.0284V23.1457C67.3653 23.5187 67.1301 23.7056 66.6607 23.7056H60.605ZM74.4218 23.9999C72.9947 23.9999 71.8691 23.5286 71.0425 22.5868C70.2347 21.645 69.8308 20.3005 69.8308 18.5533V11.5761H68.761C68.585 11.5802 68.414 11.5169 68.2826 11.3991C68.1684 11.2581 68.1083 11.0806 68.1129 10.8989V10.2514C68.1129 9.79996 68.3292 9.57422 68.761 9.57422H69.2959C70.1602 9.57422 70.9025 9.30875 71.5218 8.77961C72.1411 8.2288 72.545 7.50372 72.7326 6.60076C72.8268 6.09059 73.0799 5.83505 73.4928 5.83505H74.1408C74.6479 5.83505 74.901 6.09059 74.901 6.60076V9.57422H77.8028C77.9904 9.57422 78.1403 9.64284 78.2534 9.78009C78.3844 9.89748 78.4508 10.0546 78.4508 10.2514V10.8989C78.4526 10.9913 78.4361 11.0831 78.4022 11.169C78.3683 11.2549 78.3177 11.3331 78.2534 11.3991C78.1947 11.4586 78.1243 11.5051 78.0467 11.5356C77.9691 11.566 77.886 11.5799 77.8028 11.5761H74.901V18.6418C74.901 19.1321 75.0231 19.5249 75.2673 19.8192C75.5114 20.0946 75.8121 20.2319 76.1684 20.2319C76.9762 20.2319 77.5955 19.8689 78.0281 19.142C78.1591 18.9659 78.309 18.8675 78.4787 18.8476C78.6474 18.8088 78.7883 18.8386 78.9005 18.9361C79.0324 19.0346 79.098 19.1709 79.098 19.3488C79.098 20.5849 78.6761 21.6739 77.8306 22.6166C77.0049 23.5385 75.8686 23.9999 74.4218 23.9999Z" fill="#202430"/>
</g>
</svg>
