<svg width="138" height="18" viewBox="0 0 138 18" fill="none" xmlns="http://www.w3.org/2000/svg">
<g opacity="0.3" clip-path="url(#clip0_1561_42211)">
<path d="M117.901 7.14277V17.9896H121.343V10.7584H133.928V17.9896H137.369V7.14277H117.901ZM120.949 3.62622H134.223C136.091 3.27952 137.418 1.59554 137.812 0.0106201H117.361C117.754 1.59554 119.131 3.22999 120.949 3.62622ZM107.43 17.9896C109.151 17.2466 110.085 15.9589 110.478 14.473H94.9925V0.0601489H91.5021V17.9896H107.43ZM65.6925 3.57669H77.9828C79.8509 3.03188 81.3749 1.59554 81.7682 0.0601489H62.3004V10.6593H78.2286V14.374H65.7417C63.7753 14.9188 62.1038 16.2561 61.2681 17.9896H81.6699V7.14277H65.7417L65.6925 3.57669ZM35.4094 3.62622H48.6829C50.551 3.27952 51.9275 1.59554 52.2716 0.0106201H31.7715C32.1648 1.59554 33.5413 3.22999 35.4094 3.62622ZM35.4094 10.7088H48.6829C50.551 10.3621 51.9275 8.67816 52.2716 7.09324H31.7715C32.1648 8.67816 33.5413 10.3126 35.4094 10.7088ZM35.4094 17.9896H48.6829C50.551 17.6429 51.9275 15.9589 52.2716 14.374H31.7715C32.1648 15.9589 33.5413 17.6429 35.4094 17.9896Z" fill="#202430"/>
<path d="M0.849609 0.0601489C1.2429 1.64507 2.6194 3.22999 4.43836 3.62622H10.0427L10.3377 3.72528V17.9401H13.8281V3.72528L14.1231 3.62622H19.7274C21.5955 3.13094 22.9229 1.64507 23.3162 0.0601489V0.0106201L0.849609 0.0601489Z" fill="#202430"/>
</g>
<defs>
<clipPath id="clip0_1561_42211">
<rect width="137.012" height="18" fill="white" transform="translate(0.849609)"/>
</clipPath>
</defs>
</svg>
