<svg width="116" height="30" viewBox="0 0 116 30" fill="none" xmlns="http://www.w3.org/2000/svg">
<g opacity="0.3" clip-path="url(#clip0_1561_42203)">
<path d="M28.1712 15C28.1712 18.7664 26.6872 22.3785 24.0456 25.0417C21.404 27.705 17.8213 29.2012 14.0856 29.2012C10.3499 29.2012 6.76713 27.705 4.12557 25.0417C1.48401 22.3785 0 18.7664 0 15C0 11.2336 1.48401 7.62153 4.12557 4.9583C6.76713 2.29508 10.3499 0.798889 14.0856 0.798889C17.8213 0.798889 21.404 2.29508 24.0456 4.9583C26.6872 7.62153 28.1712 11.2336 28.1712 15Z" fill="#202430"/>
<path d="M14.2017 22.9147C10.331 22.9284 6.30366 19.6032 6.28322 14.2511C6.27641 10.7129 8.17084 7.31201 10.5832 5.29211C12.9478 3.32031 16.1779 2.06302 19.1081 2.04928C19.4501 2.0363 19.7921 2.07333 20.1235 2.15921C18.837 2.44508 17.6837 3.16014 16.8502 4.18872C16.0167 5.2173 15.5518 6.49927 15.5305 7.82729C15.5305 7.92348 15.5305 8.01967 15.5441 8.06089C19.8373 9.11206 21.7794 11.7228 21.793 15.3366C21.7904 16.3374 21.5917 17.3278 21.2083 18.2509C20.8249 19.1741 20.2644 20.0118 19.5591 20.7159C18.8537 21.42 18.0173 21.9768 17.0979 22.3541C16.1785 22.7314 15.1943 22.922 14.2017 22.9147Z" fill="white"/>
<path d="M37.2687 20.8812L32.9688 10.5137H35.7831L38.4749 17.3979L41.078 10.5137H43.7629L39.5788 20.8812H37.2687ZM51.2521 15.6459C51.2552 15.2289 51.2048 14.8132 51.1021 14.4093C51.0154 14.0517 50.8628 13.7138 50.6524 13.413C50.4627 13.1404 50.2162 12.9129 49.93 12.7466C49.6248 12.5729 49.2788 12.4851 48.9283 12.4924C48.5778 12.4848 48.2317 12.5726 47.9266 12.7466C47.6374 12.9114 47.3884 13.139 47.1974 13.413C46.9886 13.7164 46.8384 14.0567 46.7545 14.4161C46.6524 14.8179 46.602 15.2312 46.6046 15.6459C46.6012 16.063 46.6515 16.4787 46.7545 16.8826C46.8403 17.239 46.9855 17.5782 47.1838 17.8857C47.3723 18.1755 47.6305 18.4126 47.9343 18.5747C48.2382 18.7369 48.5778 18.8189 48.9215 18.8132C49.2651 18.8237 49.6055 18.7437 49.909 18.581C50.2126 18.4184 50.4688 18.1787 50.6524 17.8857C50.8599 17.5832 51.0122 17.2459 51.1021 16.8895C51.2057 16.4833 51.2561 16.0653 51.2521 15.6459ZM53.8484 15.6528C53.8485 16.3289 53.7451 17.0009 53.5417 17.6452C53.3435 18.2808 53.0317 18.8746 52.6218 19.3972C52.1822 19.9546 51.619 20.4004 50.9776 20.6987C50.3362 20.997 49.6343 21.1395 48.9283 21.1148C48.2216 21.1379 47.5193 20.9947 46.877 20.6966C46.2347 20.3984 45.6701 19.9535 45.228 19.3972C44.819 18.874 44.5073 18.2804 44.3081 17.6452C43.9031 16.3553 43.9031 14.9709 44.3081 13.681C44.5075 13.0522 44.8193 12.4654 45.228 11.9496C45.644 11.4336 46.1675 11.0161 46.7613 10.7267C47.4378 10.4033 48.1798 10.2434 48.9283 10.2595C49.6299 10.24 50.3266 10.382 50.9654 10.6749C51.6043 10.9678 52.1684 11.4038 52.615 11.9496C53.0238 12.4581 53.3373 13.0352 53.5417 13.681C53.7462 14.3268 53.8484 14.9864 53.8484 15.6528ZM61.7941 12.8016C61.3426 12.6098 60.8596 12.505 60.3699 12.4924C59.987 12.4737 59.6056 12.552 59.2604 12.72C58.9153 12.888 58.6173 13.1404 58.3937 13.4543C58.1784 13.7558 58.017 14.093 57.9166 14.4505C57.8109 14.8189 57.7582 15.2006 57.7599 15.5841C57.7576 16.0003 57.8033 16.4153 57.8962 16.8208C57.9781 17.1871 58.1235 17.5359 58.3255 17.8513C58.5095 18.1416 58.7565 18.3859 59.0479 18.5659C59.3341 18.7445 59.6816 18.8407 60.07 18.8407C60.4212 18.8328 60.7651 18.7384 61.0718 18.5659C61.3657 18.4262 61.6156 18.2075 61.7941 17.9338V12.8016ZM62.0054 20.8812L61.9031 20.0842C61.6317 20.3816 61.3083 20.6261 60.9491 20.8056C60.4283 21.0302 59.8642 21.1345 59.2982 21.1107C58.7322 21.0869 58.1786 20.9357 57.6781 20.6682C57.1415 20.3706 56.6763 19.9578 56.3152 19.459C55.9339 18.9345 55.6478 18.346 55.4702 17.7208C55.2788 17.0508 55.1825 16.3569 55.184 15.6597C55.184 14.9795 55.2794 14.3199 55.4771 13.6741C55.6693 13.0471 55.9767 12.4621 56.3834 11.9496C56.8226 11.4006 57.3825 10.9621 58.0188 10.6687C58.6551 10.3754 59.3503 10.2353 60.0496 10.2595C60.5947 10.2595 61.174 10.3626 61.7941 10.5618V6.54264H64.4381V20.8812H62.0054ZM71.8796 16.0169C71.2966 16.0563 70.7164 16.1297 70.1419 16.2368C69.5695 16.3536 69.1742 16.5459 68.9493 16.8276C68.7388 17.0849 68.6232 17.4078 68.6222 17.7414C68.6222 18.0849 68.7449 18.3597 68.997 18.5659C69.3023 18.7912 69.6755 18.9029 70.0533 18.8819C70.394 18.8819 70.7347 18.8132 71.055 18.6689C71.358 18.5356 71.6367 18.3521 71.8796 18.1261V16.0169ZM72.0908 20.8674L71.9886 20.0979C71.6863 20.4279 71.3135 20.684 70.8983 20.8468C70.0251 21.1953 69.0557 21.2099 68.1725 20.888C67.5384 20.6749 66.9889 20.2621 66.6049 19.7105C66.2209 19.1589 66.0227 18.4975 66.0395 17.8238C66.0308 17.3701 66.1265 16.9205 66.3192 16.5104C66.512 16.1003 66.7965 15.7409 67.1503 15.4604C67.5079 15.1799 67.9053 14.9553 68.3292 14.794C69.1408 14.5038 69.9858 14.3191 70.8438 14.2444L71.8659 14.1482V13.997C71.8659 13.4268 71.716 13.0214 71.423 12.7741C71.0738 12.5125 70.6443 12.3835 70.21 12.41C69.4377 12.4139 68.6855 12.6587 68.0566 13.1107C67.9192 13.1988 67.7872 13.2951 67.6614 13.3993L66.7823 11.5306C67.204 11.208 67.667 10.9445 68.1588 10.7473C69.4398 10.2105 70.8614 10.1187 72.1998 10.4862C72.66 10.6313 73.0811 10.8807 73.4308 11.2154C73.7804 11.55 74.0494 11.961 74.2169 12.4168C74.4218 12.9915 74.5188 13.5996 74.5031 14.21V20.8743L72.0908 20.8674ZM82.6737 8.90606C82.2027 8.69345 81.6904 8.59015 81.1745 8.60376C80.8134 8.60376 80.4999 8.71368 80.2546 8.94041C80.0025 9.16026 79.8798 9.52439 79.8798 10.0259V10.5137H82.1013V12.6642H79.9002V20.8812H77.2562V12.6642H75.8933V10.5137H77.2562V9.9641C77.2562 9.28393 77.3448 8.71369 77.5152 8.2465C77.6542 7.82801 77.8888 7.44832 78.2002 7.13804C78.5115 6.82776 78.8907 6.59557 79.3074 6.46019C80.5215 6.13327 81.8082 6.21283 82.9736 6.68692L82.6737 8.90606ZM89.8835 15.6459C89.8853 15.229 89.835 14.8135 89.7336 14.4093C89.6468 14.0517 89.4942 13.7138 89.2838 13.413C89.0942 13.1404 88.8476 12.9129 88.5615 12.7466C88.2562 12.5729 87.9102 12.4851 87.5597 12.4924C87.2092 12.4848 86.8632 12.5726 86.558 12.7466C86.2697 12.9125 86.0208 13.1399 85.8289 13.413C85.6197 13.7171 85.4673 14.057 85.3791 14.4161C85.1717 15.2273 85.1717 16.0783 85.3791 16.8895C85.469 17.2435 85.6163 17.5801 85.8152 17.8857C86.0016 18.1691 86.2513 18.4044 86.5444 18.5727C86.856 18.7421 87.2058 18.8273 87.5597 18.8201C87.9028 18.8287 88.2423 18.747 88.5446 18.5832C88.8469 18.4193 89.1017 18.179 89.2838 17.8857C89.4913 17.5832 89.6436 17.2459 89.7336 16.8895C89.8358 16.4831 89.8862 16.0652 89.8835 15.6459ZM92.4798 15.6528C92.4811 16.329 92.3777 17.0012 92.1732 17.6452C91.9761 18.2813 91.6642 18.8752 91.2532 19.3972C90.8136 19.9546 90.2505 20.4004 89.609 20.6987C88.9676 20.997 88.2657 21.1395 87.5597 21.1148C86.853 21.1379 86.1507 20.9947 85.5084 20.6966C84.8661 20.3984 84.3015 19.9535 83.8595 19.3972C83.4504 18.874 83.1387 18.2804 82.9395 17.6452C82.5291 16.3562 82.5291 14.97 82.9395 13.681C83.1368 13.0526 83.4463 12.4659 83.8526 11.9496C84.2706 11.4328 84.7964 11.0152 85.3927 10.7267C86.0692 10.4033 86.8112 10.2434 87.5597 10.2595C88.2613 10.24 88.958 10.382 89.5968 10.6749C90.2357 10.9678 90.7999 11.4038 91.2464 11.9496C91.6553 12.4581 91.9687 13.0352 92.1732 13.681C92.3776 14.3268 92.4798 14.9864 92.4798 15.6528ZM100.691 20.8812V14.9726C100.732 14.3234 100.56 13.6788 100.201 13.1382C100.041 12.9284 99.8345 12.7601 99.5973 12.6478C99.3601 12.5354 99.0996 12.4821 98.8377 12.4924C98.4334 12.4877 98.0361 12.5998 97.6929 12.8153C97.3635 13.016 97.0592 13.2559 96.7866 13.5298V20.8812H94.1425V10.5137H96.5549L96.6775 11.3382C97.5094 10.639 98.5588 10.2571 99.6419 10.2595C100.187 10.2595 100.684 10.342 101.141 10.5069C101.587 10.6691 101.986 10.9379 102.306 11.2901C102.64 11.6473 102.892 12.1145 103.07 12.6848C103.247 13.2619 103.335 13.9489 103.335 14.7459V20.8812H100.691ZM111.56 14.4505C111.541 14.128 111.465 13.8117 111.336 13.5161C111.23 13.2726 111.077 13.0529 110.886 12.8703C110.556 12.5622 110.123 12.3905 109.673 12.3894C109.19 12.3981 108.726 12.5809 108.364 12.9046C108.147 13.1003 107.97 13.3379 107.845 13.6033C107.72 13.8688 107.648 14.1568 107.635 14.4505H111.56ZM107.574 16.3673C107.628 17.2399 107.901 17.8719 108.392 18.2567C108.932 18.6616 109.593 18.8677 110.266 18.8407C110.895 18.8399 111.518 18.7235 112.106 18.4971C112.321 18.411 112.531 18.31 112.733 18.1948C112.87 18.1159 112.998 18.0214 113.114 17.9132L113.823 20.0842C113.422 20.3577 112.983 20.5707 112.521 20.7163C111.678 20.9771 110.801 21.1114 109.918 21.1148C109.269 21.1171 108.623 21.0079 108.01 20.7919C107.414 20.5823 106.872 20.242 106.422 19.7957C105.946 19.3148 105.575 18.7392 105.332 18.1055C105.044 17.3379 104.905 16.5215 104.923 15.7009C104.923 14.8215 105.053 14.052 105.298 13.3787C105.603 12.4557 106.193 11.6551 106.981 11.094C107.769 10.5328 108.715 10.2404 109.68 10.2595C110.301 10.2533 110.917 10.3628 111.499 10.5824C112.051 10.7954 112.528 11.1321 112.93 11.5786C113.339 12.0321 113.659 12.6161 113.891 13.3375C114.129 14.052 114.245 14.9039 114.245 15.8933V16.3673H107.574Z" fill="#202430"/>
</g>
<defs>
<clipPath id="clip0_1561_42203">
<rect width="115.154" height="30" fill="white"/>
</clipPath>
</defs>
</svg>
